<svg width="123" height="79" viewBox="0 0 123 79" fill="none" xmlns="http://www.w3.org/2000/svg">
<path d="M100.025 53.5068H23.7376C23.7376 53.5068 24.9814 56.5686 26.0035 58.4164C28.2076 62.4007 29.8738 64.4745 33.1791 67.6061C36.4857 70.7391 38.69 72.2059 42.7464 74.2781C47.7035 76.8103 53.9503 78.3065 56.3422 78.5583C58.734 78.81 100.025 78.5583 100.025 78.5583V53.5068Z" fill="url(#paint0_linear_107_5)"/>
<path d="M25.218 30.059V49H21.344V38.106C21.344 37.8547 21.3483 37.5817 21.357 37.287C21.3743 36.9923 21.4003 36.6933 21.435 36.39L16.404 46.127C16.248 46.4303 16.0357 46.66 15.767 46.816C15.507 46.972 15.208 47.05 14.87 47.05H14.272C13.934 47.05 13.6307 46.972 13.362 46.816C13.102 46.66 12.894 46.4303 12.738 46.127L7.70702 36.364C7.73302 36.676 7.75468 36.9837 7.77201 37.287C7.78935 37.5817 7.79801 37.8547 7.79801 38.106V49H3.92401V30.059H7.27802C7.46868 30.059 7.63335 30.0633 7.77201 30.072C7.91935 30.0807 8.04935 30.1067 8.16201 30.15C8.27468 30.1933 8.37435 30.2627 8.46101 30.358C8.55635 30.4447 8.64735 30.5703 8.73402 30.735L13.609 40.342C13.7823 40.6713 13.947 41.0137 14.103 41.369C14.2677 41.7243 14.4237 42.0883 14.571 42.461C14.7183 42.0797 14.87 41.707 15.026 41.343C15.1907 40.979 15.364 40.6323 15.546 40.303L20.408 30.735C20.4947 30.5703 20.5813 30.4447 20.668 30.358C20.7633 30.2627 20.8673 30.1933 20.98 30.15C21.0927 30.1067 21.2183 30.0807 21.357 30.072C21.5043 30.0633 21.6733 30.059 21.864 30.059H25.218ZM48.253 39.523C48.253 40.8923 48.0147 42.1663 47.538 43.345C47.07 44.5237 46.407 45.5507 45.549 46.426C44.691 47.2927 43.6553 47.973 42.442 48.467C41.2373 48.961 39.8983 49.208 38.425 49.208C36.9517 49.208 35.6083 48.961 34.395 48.467C33.1817 47.973 32.1417 47.2927 31.275 46.426C30.417 45.5507 29.7497 44.5237 29.273 43.345C28.805 42.1663 28.571 40.8923 28.571 39.523C28.571 38.1537 28.805 36.8797 29.273 35.701C29.7497 34.5223 30.417 33.4997 31.275 32.633C32.1417 31.7663 33.1817 31.086 34.395 30.592C35.6083 30.098 36.9517 29.851 38.425 29.851C39.8983 29.851 41.2373 30.1023 42.442 30.605C43.6553 31.099 44.691 31.7793 45.549 32.646C46.407 33.5127 47.07 34.5353 47.538 35.714C48.0147 36.8927 48.253 38.1623 48.253 39.523ZM43.755 39.523C43.755 38.587 43.6337 37.7463 43.391 37.001C43.1483 36.247 42.7973 35.61 42.338 35.09C41.8873 34.57 41.3327 34.1713 40.674 33.894C40.0153 33.6167 39.2657 33.478 38.425 33.478C37.5757 33.478 36.8173 33.6167 36.15 33.894C35.4913 34.1713 34.9323 34.57 34.473 35.09C34.0223 35.61 33.6757 36.247 33.433 37.001C33.1903 37.7463 33.069 38.587 33.069 39.523C33.069 40.4677 33.1903 41.317 33.433 42.071C33.6757 42.8163 34.0223 43.449 34.473 43.969C34.9323 44.489 35.4913 44.8877 36.15 45.165C36.8173 45.4337 37.5757 45.568 38.425 45.568C39.2657 45.568 40.0153 45.4337 40.674 45.165C41.3327 44.8877 41.8873 44.489 42.338 43.969C42.7973 43.449 43.1483 42.8163 43.391 42.071C43.6337 41.317 43.755 40.4677 43.755 39.523ZM70.2088 39.523C70.2088 40.8923 69.9704 42.1663 69.4938 43.345C69.0258 44.5237 68.3628 45.5507 67.5048 46.426C66.6468 47.2927 65.6111 47.973 64.3978 48.467C63.1931 48.961 61.8541 49.208 60.3808 49.208C58.9074 49.208 57.5641 48.961 56.3508 48.467C55.1374 47.973 54.0974 47.2927 53.2308 46.426C52.3728 45.5507 51.7054 44.5237 51.2288 43.345C50.7608 42.1663 50.5268 40.8923 50.5268 39.523C50.5268 38.1537 50.7608 36.8797 51.2288 35.701C51.7054 34.5223 52.3728 33.4997 53.2308 32.633C54.0974 31.7663 55.1374 31.086 56.3508 30.592C57.5641 30.098 58.9074 29.851 60.3808 29.851C61.8541 29.851 63.1931 30.1023 64.3978 30.605C65.6111 31.099 66.6468 31.7793 67.5048 32.646C68.3628 33.5127 69.0258 34.5353 69.4938 35.714C69.9704 36.8927 70.2088 38.1623 70.2088 39.523ZM65.7108 39.523C65.7108 38.587 65.5894 37.7463 65.3468 37.001C65.1041 36.247 64.7531 35.61 64.2938 35.09C63.8431 34.57 63.2884 34.1713 62.6298 33.894C61.9711 33.6167 61.2214 33.478 60.3808 33.478C59.5314 33.478 58.7731 33.6167 58.1058 33.894C57.4471 34.1713 56.8881 34.57 56.4288 35.09C55.9781 35.61 55.6314 36.247 55.3888 37.001C55.1461 37.7463 55.0248 38.587 55.0248 39.523C55.0248 40.4677 55.1461 41.317 55.3888 42.071C55.6314 42.8163 55.9781 43.449 56.4288 43.969C56.8881 44.489 57.4471 44.8877 58.1058 45.165C58.7731 45.4337 59.5314 45.568 60.3808 45.568C61.2214 45.568 61.9711 45.4337 62.6298 45.165C63.2884 44.8877 63.8431 44.489 64.2938 43.969C64.7531 43.449 65.1041 42.8163 65.3468 42.071C65.5894 41.317 65.7108 40.4677 65.7108 39.523ZM89.88 30.059L82.288 49H78.31L70.718 30.059H74.254C74.6353 30.059 74.943 30.15 75.177 30.332C75.411 30.5053 75.5887 30.7307 75.71 31.008L79.376 41.148C79.5493 41.59 79.7183 42.0753 79.883 42.604C80.0477 43.124 80.2037 43.67 80.351 44.242C80.4723 43.67 80.6067 43.124 80.754 42.604C80.91 42.0753 81.0747 41.59 81.248 41.148L84.888 31.008C84.9833 30.7653 85.1523 30.5487 85.395 30.358C85.6463 30.1587 85.954 30.059 86.318 30.059H89.88ZM96.5734 33.439V37.859H102.527V41.109H96.5734V45.62H104.347V49H92.1534V30.059H104.347V33.439H96.5734ZM112.258 33.439V37.859H118.212V41.109H112.258V45.62H120.032V49H107.838V30.059H120.032V33.439H112.258Z" fill="white"/>
<path d="M30.2837 14.1043C27.1864 17.889 23.9894 24.9305 23.9894 24.9305H97.0036C97.0036 24.9305 93.9548 17.6979 90.8351 13.8525C87.2263 9.40415 82.4007 6.2993 79.5053 4.53689C76.61 2.77449 67.7366 -0.136571 59.867 0.00497623C55.5918 0.0818741 50.9291 1.13796 49.0408 1.6415C47.1525 2.14504 41.8909 4.18115 37.9628 6.92874C34.5995 9.2812 32.8831 10.928 30.2837 14.1043Z" fill="url(#paint1_linear_107_5)"/>
<defs>
<linearGradient id="paint0_linear_107_5" x1="66.5" y1="77.5" x2="66.5" y2="31" gradientUnits="userSpaceOnUse">
<stop stop-color="#6391FF"/>
<stop offset="1" stop-color="#BED1FF" stop-opacity="0"/>
</linearGradient>
<linearGradient id="paint1_linear_107_5" x1="60.4965" y1="0" x2="60.4965" y2="24.9305" gradientUnits="userSpaceOnUse">
<stop stop-color="#6391FF"/>
<stop offset="1" stop-color="#BED1FF"/>
</linearGradient>
</defs>
</svg>
