<svg width="20" height="16" viewBox="0 0 20 16" fill="none" xmlns="http://www.w3.org/2000/svg">
<path d="M0.5 2C0.5 1.17157 1.17157 0.5 2 0.5H18C18.8284 0.5 19.5 1.17157 19.5 2C19.5 2.82843 18.8284 3.5 18 3.5H2C1.17157 3.5 0.5 2.82843 0.5 2Z" fill="white"/>
<path d="M3.5 8C3.5 7.17157 4.17157 6.5 5 6.5H15C15.8284 6.5 16.5 7.17157 16.5 8C16.5 8.82843 15.8284 9.5 15 9.5H5C4.17157 9.5 3.5 8.82843 3.5 8Z" fill="white"/>
<path d="M8 12.5C7.17157 12.5 6.5 13.1716 6.5 14C6.5 14.8284 7.17157 15.5 8 15.5H12C12.8284 15.5 13.5 14.8284 13.5 14C13.5 13.1716 12.8284 12.5 12 12.5H8Z" fill="white"/>
</svg>
