<svg width="24" height="24" viewBox="0 0 24 24" fill="none" xmlns="http://www.w3.org/2000/svg">
<path d="M5.33333 1.33333C5.33333 0.596954 5.93029 0 6.66667 0C7.40305 0 8 0.596954 8 1.33333V2.66667H16V1.33333C16 0.596954 16.597 0 17.3333 0C18.0697 0 18.6667 0.596954 18.6667 1.33333V2.66667H21.3333C22.8061 2.66667 24 3.86057 24 5.33333V9.33333H0V5.33333C0 3.86057 1.19391 2.66667 2.66667 2.66667H5.33333V1.33333Z" fill="#F4B522"/>
<path d="M0 12H24V21.3333C24 22.8061 22.8061 24 21.3333 24H2.66667C1.19391 24 0 22.8061 0 21.3333V12Z" fill="#F4B522"/>
</svg>
