<svg width="25" height="18" viewBox="0 0 25 18" fill="none" xmlns="http://www.w3.org/2000/svg">
<path fill-rule="evenodd" clip-rule="evenodd" d="M12.5 0C9.26037 0 6.26733 0.574727 4.03738 1.55492C2.92398 2.04433 1.94557 2.6591 1.22859 3.40422C0.505475 4.1557 0 5.09629 0 6.18132V11.1264C0 12.2114 0.505475 13.152 1.22859 13.9035C1.94557 14.6486 2.92398 15.2634 4.03738 15.7528C6.26733 16.733 9.26037 17.3077 12.5 17.3077C15.7396 17.3077 18.7327 16.733 20.9626 15.7528C22.076 15.2634 23.0544 14.6486 23.7714 13.9035C24.4945 13.152 25 12.2114 25 11.1264V6.18132C25 5.09629 24.4945 4.1557 23.7714 3.40422C23.0544 2.6591 22.076 2.04433 20.9626 1.55492C18.7327 0.574727 15.7396 0 12.5 0ZM22.5 9.98913C22.0307 10.293 21.5132 10.5657 20.9626 10.8077C18.7327 11.7879 15.7396 12.3626 12.5 12.3626C9.26037 12.3626 6.26733 11.7879 4.03738 10.8077C3.48681 10.5657 2.96926 10.293 2.5 9.98913V11.1264C2.5 11.4069 2.62412 11.7672 3.03957 12.1989C3.46116 12.6371 4.13027 13.0879 5.05272 13.4933C6.89447 14.3029 9.52643 14.8352 12.5 14.8352C15.4736 14.8352 18.1055 14.3029 19.9473 13.4933C20.8697 13.0879 21.5388 12.6371 21.9604 12.1989C22.3759 11.7672 22.5 11.4069 22.5 11.1264V9.98913Z" fill="#F7931A"/>
</svg>
