<svg width="28" height="28" viewBox="0 0 28 28" fill="none" xmlns="http://www.w3.org/2000/svg">
<path fill-rule="evenodd" clip-rule="evenodd" d="M13.9998 0.666504C6.63604 0.666504 0.666504 6.63604 0.666504 13.9998C0.666504 21.3636 6.63604 27.3332 13.9998 27.3332C21.3636 27.3332 27.3332 21.3636 27.3332 13.9998C27.3332 6.63604 21.3636 0.666504 13.9998 0.666504ZM13.057 9.28579L9.28574 13.057C8.76505 13.5777 8.76505 14.4219 9.28574 14.9426L13.057 18.7139C13.5777 19.2346 14.4219 19.2346 14.9426 18.7139L18.7138 14.9426C19.2345 14.4219 19.2345 13.5777 18.7138 13.057L14.9426 9.28579C14.4219 8.76509 13.5777 8.76509 13.057 9.28579Z" fill="#6391FF"/>
</svg>
