<svg width="25" height="25" viewBox="0 0 25 25" fill="none" xmlns="http://www.w3.org/2000/svg">
<path d="M10 10H11.25V11.25H10C9.65482 11.25 9.375 10.9702 9.375 10.625C9.375 10.2798 9.65482 10 10 10Z" fill="#5AAEC9"/>
<path d="M13.75 15V13.75H15C15.3452 13.75 15.625 14.0298 15.625 14.375C15.625 14.7202 15.3452 15 15 15H13.75Z" fill="#5AAEC9"/>
<path fill-rule="evenodd" clip-rule="evenodd" d="M12.5 0C5.59644 0 0 5.59644 0 12.5C0 19.4036 5.59644 25 12.5 25C19.4036 25 25 19.4036 25 12.5C25 5.59644 19.4036 0 12.5 0ZM11.25 6.25C11.25 5.55964 11.8096 5 12.5 5C13.1904 5 13.75 5.55964 13.75 6.25V7.5H16.25C16.9404 7.5 17.5 8.05964 17.5 8.75C17.5 9.44036 16.9404 10 16.25 10H13.75V11.25H15C16.7259 11.25 18.125 12.6491 18.125 14.375C18.125 16.1009 16.7259 17.5 15 17.5H13.75V18.75C13.75 19.4404 13.1904 20 12.5 20C11.8096 20 11.25 19.4404 11.25 18.75V17.5H8.75C8.05964 17.5 7.5 16.9404 7.5 16.25C7.5 15.5596 8.05964 15 8.75 15H11.25V13.75H10C8.27411 13.75 6.875 12.3509 6.875 10.625C6.875 8.89911 8.27411 7.5 10 7.5H11.25V6.25Z" fill="#5AAEC9"/>
</svg>
