<svg width="27" height="26" viewBox="0 0 27 26" fill="none" xmlns="http://www.w3.org/2000/svg">
<path fill-rule="evenodd" clip-rule="evenodd" d="M0 1.33333C0 0.596954 0.596954 0 1.33333 0H25.3333C26.0697 0 26.6667 0.596954 26.6667 1.33333C26.6667 2.06971 26.0697 2.66667 25.3333 2.66667V17.3333C25.3333 18.8061 24.1394 20 22.6667 20H15.927L18.9842 23.0572C19.5049 23.5779 19.5049 24.4221 18.9842 24.9428C18.4635 25.4635 17.6193 25.4635 17.0986 24.9428L13.3274 21.1716L9.55613 24.9428C9.03543 25.4635 8.19121 25.4635 7.67051 24.9428C7.14981 24.4221 7.14981 23.5779 7.67051 23.0572L10.7277 20H4C2.52724 20 1.33333 18.8061 1.33333 17.3333L1.33333 2.66667C0.596954 2.66667 0 2.06971 0 1.33333ZM18.9905 5.56236C19.5112 5.04167 20.3554 5.04167 20.8761 5.56236C21.3968 6.08306 21.3968 6.92728 20.8761 7.44798L15.2285 13.0955C14.7027 13.6214 13.85 13.6215 13.3241 13.0955L10.5065 10.278L7.67811 13.1064C7.15742 13.6271 6.3132 13.6271 5.7925 13.1064C5.2718 12.5857 5.2718 11.7415 5.7925 11.2208L9.55428 7.45898C10.0802 6.93308 10.9328 6.93307 11.4588 7.45898L14.2763 10.2765L18.9905 5.56236Z" fill="white"/>
</svg>
