<svg width="16" height="16" viewBox="0 0 16 16" fill="none" xmlns="http://www.w3.org/2000/svg">
<path d="M2.55556 1C1.69645 1 1 1.69645 1 2.55556V13.4444C1 14.3036 1.69645 15 2.55556 15H13.4444C14.3036 15 15 14.3036 15 13.4444V6.44444C15 6.01489 14.6518 5.66667 14.2222 5.66667C13.7927 5.66667 13.4444 6.01489 13.4444 6.44444V13.4444H2.55556V2.55556H5.66667C6.09622 2.55556 6.44444 2.20733 6.44444 1.77778C6.44444 1.34822 6.09622 1 5.66667 1H2.55556Z" fill="#23262F" fill-opacity="0.3"/>
<path d="M9.55556 1C9.126 1 8.77778 1.34822 8.77778 1.77778C8.77778 2.20733 9.126 2.55556 9.55556 2.55556H11.3229C10.9257 2.83254 10.5077 3.14843 10.0881 3.50338C8.6795 4.695 7.20601 6.36685 6.48436 8.53182C6.34852 8.93933 6.56876 9.37981 6.97627 9.51564C7.38378 9.65148 7.82425 9.43124 7.96009 9.02373C8.55871 7.22786 9.80624 5.77932 11.0928 4.69098C12.3752 3.60611 13.6495 2.91881 14.2245 2.63568C14.6603 2.42106 14.7504 1.96803 14.6794 1.66597C14.6086 1.36425 14.3273 1 13.8433 1H9.55556Z" fill="#23262F" fill-opacity="0.3"/>
<path d="M2.55556 1C1.69645 1 1 1.69645 1 2.55556V13.4444C1 14.3036 1.69645 15 2.55556 15H13.4444C14.3036 15 15 14.3036 15 13.4444V6.44444C15 6.01489 14.6518 5.66667 14.2222 5.66667C13.7927 5.66667 13.4444 6.01489 13.4444 6.44444V13.4444H2.55556V2.55556H5.66667C6.09622 2.55556 6.44444 2.20733 6.44444 1.77778C6.44444 1.34822 6.09622 1 5.66667 1H2.55556Z" stroke="#23262F" stroke-opacity="0.3" stroke-linecap="round"/>
<path d="M9.55556 1C9.126 1 8.77778 1.34822 8.77778 1.77778C8.77778 2.20733 9.126 2.55556 9.55556 2.55556H11.3229C10.9257 2.83254 10.5077 3.14843 10.0881 3.50338C8.6795 4.695 7.20601 6.36685 6.48436 8.53182C6.34852 8.93933 6.56876 9.37981 6.97627 9.51564C7.38378 9.65148 7.82425 9.43124 7.96009 9.02373C8.55871 7.22786 9.80624 5.77932 11.0928 4.69098C12.3752 3.60611 13.6495 2.91881 14.2245 2.63568C14.6603 2.42106 14.7504 1.96803 14.6794 1.66597C14.6086 1.36425 14.3273 1 13.8433 1H9.55556Z" stroke="#23262F" stroke-opacity="0.3" stroke-linecap="round"/>
</svg>
