<svg width="26" height="22" viewBox="0 0 26 22" fill="none" xmlns="http://www.w3.org/2000/svg">
<path d="M0 2.66667C0 1.19391 1.19391 0 2.66667 0H21.3333C22.8061 0 24 1.19391 24 2.66667V4H16C12.3181 4 9.33333 6.98477 9.33333 10.6667C9.33333 14.3486 12.3181 17.3333 16 17.3333H24V18.6667C24 20.1394 22.8061 21.3333 21.3333 21.3333H2.66667C1.19391 21.3333 0 20.1394 0 18.6667V2.66667Z" fill="#6391FF"/>
<path fill-rule="evenodd" clip-rule="evenodd" d="M12 10.6667C12 8.45753 13.7909 6.66667 16 6.66667H22.6667C24.1394 6.66667 25.3333 7.86057 25.3333 9.33333V12C25.3333 13.4728 24.1394 14.6667 22.6667 14.6667H16C13.7909 14.6667 12 12.8758 12 10.6667ZM17.3333 10.6667C17.3333 11.403 16.7364 12 16 12C15.2636 12 14.6667 11.403 14.6667 10.6667C14.6667 9.93029 15.2636 9.33333 16 9.33333C16.7364 9.33333 17.3333 9.93029 17.3333 10.6667Z" fill="#6391FF"/>
</svg>
