<svg width="24" height="24" viewBox="0 0 24 24" fill="none" xmlns="http://www.w3.org/2000/svg">
<path d="M2 20.6302C2 20.1402 2 19.6402 2 19.1502C2.38 19.0402 2.61 18.5902 3.09 18.6902C4.05 18.8902 4.02 18.2802 4.01 17.6302C3.99 15.9202 4.01 14.2002 4 12.4902C4 11.6602 4.33 10.6102 2.8 10.7502C2.42 10.7802 2.27 10.2802 2 10.0302C2 9.21021 2 8.39021 2 7.56021C2.38 7.25021 2.73 6.88021 3.15 6.65021C5.78 5.17021 8.42 3.73021 11.05 2.26021C11.69 1.90021 12.28 1.92021 12.92 2.28021C14.72 3.30021 16.55 4.25021 18.34 5.28021C19.58 5.99021 20.97 6.47021 21.97 7.56021C21.97 8.46021 21.97 9.37021 21.97 10.2702C21.61 10.4502 21.25 10.8002 20.9 10.7702C19.97 10.7002 19.95 11.1902 19.96 11.8802C19.99 13.5102 19.96 15.1402 19.97 16.7602C19.98 17.7202 19.56 18.9802 21.36 18.7702C21.55 18.7502 21.76 19.0102 21.97 19.1402C21.97 19.6302 21.97 20.1302 21.97 20.6202C15.31 20.6302 8.66 20.6302 2 20.6302ZM11.98 10.8302C10.61 10.8302 9.24 10.8702 7.87 10.8102C7.14 10.7802 6.96 11.0402 6.98 11.7202C7.02 13.7702 7.04 15.8302 6.97 17.8802C6.95 18.6802 7.31 18.7302 7.93 18.7002C8.5 18.6702 9.08 18.8302 9.01 17.8802C8.92 16.6102 8.99 15.3402 8.99 14.0602C8.99 13.4002 8.75 12.7202 9.96 12.7302C11.08 12.7302 11.01 13.2802 10.99 14.0102C10.97 15.3202 11.04 16.6402 10.96 17.9502C10.9 18.8502 11.45 18.7002 11.98 18.7002C12.51 18.7002 13.06 18.8502 13 17.9502C12.92 16.6402 13 15.3202 12.97 14.0102C12.96 13.2802 12.88 12.7402 14 12.7302C15.21 12.7302 14.97 13.4002 14.97 14.0602C14.97 15.3702 15.02 16.6902 14.95 18.0002C14.91 18.8202 15.41 18.7202 15.9 18.6902C16.37 18.6602 17 18.9602 16.98 18.0102C16.93 15.8802 16.93 13.7402 16.98 11.6102C17 10.8902 16.67 10.8202 16.09 10.8302C14.73 10.8502 13.35 10.8302 11.98 10.8302ZM12.02 7.85021C12.54 7.78021 12.94 7.48021 12.96 6.93021C12.99 6.32021 12.59 5.91021 11.98 5.91021C11.37 5.91021 10.98 6.32021 11 6.93021C11.03 7.49021 11.43 7.77021 12.02 7.85021Z" fill="#7C8FAC"/>
</svg>
