<svg width="24" height="24" viewBox="0 0 24 24" fill="none" xmlns="http://www.w3.org/2000/svg">
<circle cx="12" cy="12" r="10" fill="#7C8FAC"/>
<g clip-path="url(#clip0_136_1412)">
<path d="M12.95 12.46C13.08 13.46 12.74 14.59 13.37 15.69C13.68 16.23 13.12 16.76 12.44 16.82C11.67 16.89 11.02 16.68 11 15.74C10.97 14.43 11 13.11 10.98 11.8C10.97 11.47 11.15 11.07 10.68 10.84C10.15 10.58 9.81003 10.17 10.12 9.55005C10.52 8.73005 11.3 8.93005 11.97 8.97005C12.56 9.01005 12.95 9.36005 12.96 10.01C12.96 10.79 12.95 11.57 12.95 12.46Z" fill="#2A3447"/>
<path d="M12.9698 7.00006C12.8498 7.56006 12.5398 7.99006 11.9098 7.94006C11.3698 7.90006 10.9798 7.54006 10.9998 6.97006C11.0298 6.36006 11.4098 5.96006 12.0398 6.00006C12.5798 6.04006 12.8998 6.41006 12.9698 7.00006Z" fill="#2A3447"/>
</g>
<defs>
<clipPath id="clip0_136_1412">
<rect width="3.47" height="10.83" fill="white" transform="translate(10 6)"/>
</clipPath>
</defs>
</svg>
