<svg width="24" height="24" viewBox="0 0 24 24" fill="none" xmlns="http://www.w3.org/2000/svg">
<path d="M3 6C3 4.89543 3.89543 4 5 4H19C20.1046 4 21 4.89543 21 6V7H15C12.2386 7 10 9.23858 10 12C10 14.7614 12.2386 17 15 17H21V18C21 19.1046 20.1046 20 19 20H5C3.89543 20 3 19.1046 3 18V6Z" fill="#7C8FAC"/>
<path fill-rule="evenodd" clip-rule="evenodd" d="M12 12C12 10.3431 13.3431 9 15 9H20C21.1046 9 22 9.89543 22 11V13C22 14.1046 21.1046 15 20 15H15C13.3431 15 12 13.6569 12 12ZM16 12C16 12.5523 15.5523 13 15 13C14.4477 13 14 12.5523 14 12C14 11.4477 14.4477 11 15 11C15.5523 11 16 11.4477 16 12Z" fill="#7C8FAC"/>
</svg>
